<svg xmlns="http://www.w3.org/2000/svg" xmlns:xlink="http://www.w3.org/1999/xlink" width="348" height="353" fill="none" xmlns:v="https://vecta.io/nano"><path opacity=".87" d="M275 190.602L66.504 139l-1.506 213h120.839L275 190.602z" fill="#f2ab94"/><g fill-rule="evenodd"><use xlink:href="#E" fill="#fbe8e7"/><use xlink:href="#E" fill="url(#C)"/></g><g filter="url(#B)"><path d="M222.347 40.409l2.433 18.436-5.938 13.806 49.923 55.578 16.541-6.117 4.063.733-65.86-90.688c-1.1 2.52-1.544 5.356-1.162 8.252z" fill="#b70f02" fill-opacity=".26"/></g><g fill="#e56a61"><path d="M.922 352.014l19.847-.008c1.526-.001 2.071-2.018.754-2.788l-6.799-3.971c-5.547-3.24-12.669-.54-14.674 5.563a.92.92 0 0 0 .872 1.204zm44.356 0l19.847-.008c1.526-.001 2.072-2.018.754-2.788l-6.799-3.971c-5.547-3.24-12.669-.54-14.674 5.563a.92.92 0 0 0 .872 1.204z"/><path fill-rule="evenodd" d="M43.799 340.377l.358-28.342-18.711 28.342H.8c-.419 0-.681-.452-.449-.804l31.662-47.958c9.516-14.415 31.001-8.749 33.378 7.277.004.027.105.08.109.108v3l-.378 38.377H43.799z"/></g><g fill="#151e3d"><path d="M25.501 266.304c-3.523.715-6.993-1.617-7.741-5.143-.767-3.552 1.499-7.002 4.996-7.697 3.523-.715 21.558 2.405 21.558 2.405s-15.27 9.747-18.813 10.435zm29.287 3.057c-14.255-3.18-28.388 5.799-31.567 20.054L65.5 299v-12.6h8.483c-2.932-8.315-9.955-14.979-19.195-17.039z"/><path fill-rule="evenodd" d="M107.93 277.192a8.96 8.96 0 0 1-8.889 9.024l-33.541.252-16.31.122a8.96 8.96 0 0 1-9.024-8.888 8.96 8.96 0 0 1 8.889-9.024l49.851-.375a8.96 8.96 0 0 1 9.024 8.889z"/><path d="M54.176 261.588a8.5 8.5 0 0 1-11.69-2.785 8.5 8.5 0 0 1 2.786-11.69 8.5 8.5 0 0 1 11.69 2.786 8.5 8.5 0 0 1-2.786 11.689z"/></g><mask id="A" maskUnits="userSpaceOnUse" x="197" y="-32" width="185" height="186" mask-type="alpha"><path transform="rotate(48.068 287.265 -31.172)" fill="#c4c4c4" d="M287.265-31.172h140.557V89.247H287.265z"/></mask><g mask="url(#A)"><use xlink:href="#F" fill="#eab2a1"/><use xlink:href="#F" fill="url(#D)"/><path opacity=".65" d="M274.073 66.844l5.531-.965c2.996-.523 5.218-1.692 6.665-3.506 1.442-1.847 1.907-4.237 1.395-7.169-.989-5.666-4.727-7.934-11.213-6.801l-5.432.948 3.054 17.493zm18.683-12.784c1.007 5.765-.723 10.141-5.189 13.127l13.117 17.417-5.63.983-11.698-16.29-8.593 1.5 3.106 17.79-4.988.871-7.591-43.487 10.42-1.819c4.707-.822 8.54-.439 11.498 1.15s4.807 4.508 5.548 8.758zm-48.758 18.034c-1.15-6.589-.582-13.053 1.704-19.393s6.019-11.676 11.199-16.01 11.096-7.08 17.747-8.241c6.584-1.149 13.045-.58 19.381 1.709s11.671 6.025 16.002 11.21 7.079 11.105 8.24 17.759c1.133 6.49.6 12.864-1.598 19.12s-5.88 11.601-11.043 16.033-11.169 7.246-18.017 8.441c-6.815 1.19-13.399.591-19.753-1.797-6.359-2.42-11.65-6.198-15.871-11.335-4.189-5.142-6.852-10.974-7.991-17.497zm4.593-.802c1.024 5.864 3.421 11.047 7.192 15.549a33.37 33.37 0 0 0 13.972 9.782 32.15 32.15 0 0 0 17.065 1.553c5.86-1.023 11.022-3.418 15.488-7.185a33.25 33.25 0 0 0 9.822-13.987c2.056-5.519 2.572-11.211 1.549-17.075-1.001-5.732-3.351-10.839-7.051-15.319-3.667-4.486-8.3-7.802-13.899-9.948-5.566-2.152-11.329-2.707-17.288-1.667-5.794 1.012-10.954 3.423-15.479 7.234-4.498 3.773-7.77 8.451-9.814 14.036s-2.563 11.26-1.557 17.025z" fill="#e44e20" fill-opacity=".51"/></g><ellipse cx="241.883" cy="103.064" rx="9.881" ry="46.154" transform="rotate(314.972 241.883 103.064)" fill="#ef756e"/><defs><filter id="B" x="206.842" y="20.157" width="94.527" height="120.072" filterUnits="userSpaceOnUse" color-interpolation-filters="sRGB"><feFlood flood-opacity="0"/><feBlend in="SourceGraphic"/><feGaussianBlur stdDeviation="6"/></filter><radialGradient id="C" cx="0" cy="0" r="1" gradientUnits="userSpaceOnUse" gradientTransform="matrix(70.88246265469543,391.6026221107383,-415.03289011121774,75.12348404413812,63.6654,-99.8575)"><stop stop-color="#e56a61" stop-opacity=".41"/><stop offset=".536" stop-color="#ee756d"/></radialGradient><linearGradient id="D" x1="210.545" y1="127.24" x2="273.812" y2="79.012" gradientUnits="userSpaceOnUse"><stop offset=".168" stop-color="#ee756d"/><stop offset="1" stop-color="#ee756d" stop-opacity="0"/></linearGradient><path id="E" d="M286.167 166.735c-3.975 14.091-10.475 26.788-18.873 37.739l-35.801-10.098c-3.93-1.109-7.795 1.947-7.623 6.027l1.318 31.319c.443 10.513-7.961 19.278-18.483 19.278-10.676 0-19.136-9.011-18.463-19.666l2.388-37.816a13 13 0 0 0-9.445-13.332L66.969 147.971c-1.438-13.725-.345-27.947 3.629-42.038 16.79-59.529 78.657-94.174 138.185-77.384s94.174 78.657 77.384 138.186z"/><path id="F" d="M265.679 5.428a15 15 0 0 1 19.572-1.722l15.59 11.279 19.144 1.777c7.461.693 13.267 6.785 13.599 14.271l.846 19.062 10.48 15.936a15 15 0 0 1-2.692 19.563l-14.444 12.555-6.017 18.187c-2.347 7.092-9.555 11.377-16.907 10.049l-18.966-3.424-18.077 6.684c-7.007 2.591-14.853-.369-18.402-6.942l-9.1-16.857-16.416-9.839a15 15 0 0 1-6.067-18.792l7.536-17.521-2.496-18.917a15 15 0 0 1 10.897-16.426l18.54-5.094 13.38-13.828z"/></defs></svg>